:FULLY-SPECIFIED
:FORCE-ALL-JOINTS-BE-3DOF
:DEGREES
170
root 6.49116 16.1343 -25.6404 4.01208 28.8626 1.16855
lfemur -23.5694 26.8459 -12.8568
ltibia 39.1395 -0 0
lfoot -9.38929 2.26892 0.466586
ltoes 15.3748 -0 0
rfemur -21.8768 -6.02015 -4.43872
rtibia 61.5258 -0 0
rfoot 2.3955 -25.6108 -0.0260721
rtoes 43.3443 -0 0
lowerback 1.03586 -4.93762 -1.31399
upperback 0.0455779 -6.59379 -2.71496
thorax -0.616215 -3.30108 -1.89627
lowerneck -9.94495 -7.07958 -1.00787
upperneck 1.97004 -9.58983 5.43257
head 2.7056 -4.5911 1.39743
lclavicle 0 0 0
lhumerus -49.7644 -41.7 114.536
lradius 51.9743 -0 0
lwrist 14.2794 0 0
lhand 37.998 26.1988 0.0126018
lfingers 0 0 0
lthumb 60.7125 39.1823 0.00519334
rclavicle 0 0 0
rhumerus -50.3638 -9.08776 -81.7576
rradius 93.5944 -0 0
rwrist -8.99896 0 0
rhand -25.0519 -25.3854 0.22224
rfingers 0 0 0
rthumb 1.45877 -55.1733 0.226865
171
root 6.43814 16.1412 -25.6208 4.16433 27.6844 1.20702
lfemur -22.8805 25.0733 -10.9013
ltibia 38.9621 -0 0
lfoot -10.4707 -1.07055 0.4983
ltoes 11.0762 -0 0
rfemur -20.5993 -5.90174 -4.6532
rtibia 58.1257 -0 0
rfoot -0.078772 -25.5294 -0.0278398
rtoes 43.0455 -0 0
lowerback 0.602094 -4.47336 -1.09922
upperback 0.0351591 -5.96054 -3.09864
thorax -0.425883 -2.98664 -2.45075
lowerneck -10.0092 -7.08394 -0.593163
upperneck 2.06331 -9.65115 5.43084
head 2.7263 -4.61424 1.31953
lclavicle 0 0 0
lhumerus -50.3967 -41.9754 114.68
lradius 52.0158 -0 0
lwrist 14.5365 0 0
lhand 38.2259 26.6248 0.0134542
lfingers 0 0 0
lthumb 60.9053 39.3899 0.00554459
rclavicle 0 0 0
rhumerus -50.635 -5.48146 -83.6047
rradius 94.1349 -0 0
rwrist -7.44934 0 0
rhand -22.6755 -24.6633 0.237308
rfingers 0 0 0
rthumb 3.75296 -54.4098 0.242244
172
root 6.38834 16.1494 -25.6031 4.31322 26.5131 1.24139
lfemur -22.2708 23.2917 -9.00766
ltibia 38.7858 -0 0
lfoot -11.5457 -4.39003 0.467339
ltoes 6.80342 -0 0
rfemur -19.3301 -5.77936 -4.86367
rtibia 54.746 -0 0
rfoot -2.53823 -25.4485 -0.026114
rtoes 42.7485 -0 0
lowerback 0.172912 -4.01029 -0.889362
upperback 0.0205936 -5.33116 -3.47972
thorax -0.23977 -2.67227 -3.00072
lowerneck -10.0731 -7.08781 -0.180927
upperneck 2.15604 -9.7121 5.42903
head 2.7469 -4.63721 1.24208
lclavicle 0 0 0
lhumerus -51.0289 -42.2479 114.827
lradius 52.057 -0 0
lwrist 14.792 0 0
lhand 38.4525 27.0483 0.012622
lfingers 0 0 0
lthumb 61.0969 39.5962 0.00520168
rclavicle 0 0 0
rhumerus -51.0185 -1.90723 -85.4503
rradius 94.6722 -0 0
rwrist -5.90899 0 0
rhand -20.3134 -23.9454 0.222598
rfingers 0 0 0
rthumb 6.03341 -53.6508 0.22723
173
root 6.34355 16.1579 -25.5877 4.45108 25.4124 1.27031
lfemur -21.7629 21.6016 -7.26888
ltibia 38.6201 -0 0
lfoot -12.5527 -7.50848 0.381562
ltoes 2.78801 -0 0
rfemur -18.1381 -5.66016 -5.05888
rtibia 51.5699 -0 0
rfoot -4.84953 -25.3726 -0.0213302
rtoes 42.4694 -0 0
lowerback -0.228655 -3.5737 -0.69542
upperback 0.0030902 -4.7398 -3.83765
thorax -0.06767 -2.37523 -3.5165
lowerneck -10.1332 -7.09104 0.206483
upperneck 2.2432 -9.76938 5.42723
head 2.76629 -4.65877 1.16929
lclavicle 0 0 0
lhumerus -51.6264 -42.5029 114.97
lradius 52.0958 -0 0
lwrist 15.0322 0 0
lhand 38.6653 27.4462 0.010314
lfingers 0 0 0
lthumb 61.277 39.79 0.00425056
rclavicle 0 0 0
rhumerus -51.4835 1.43875 -87.2059
rradius 95.1772 -0 0
rwrist -4.46144 0 0
rhand -18.0939 -23.2719 0.18182
rfingers 0 0 0
rthumb 8.17613 -52.9387 0.185607
